<svg width="27" height="27" viewBox="0 0 27 27" fill="none" xmlns="http://www.w3.org/2000/svg">
<path d="M17.64 13.44C17.64 14.5539 17.1975 15.6222 16.4098 16.4098C15.6222 17.1975 14.5539 17.64 13.44 17.64C12.3261 17.64 11.2578 17.1975 10.4702 16.4098C9.6825 15.6222 9.24 14.5539 9.24 13.44C9.24 13.2006 9.2652 12.9668 9.3086 12.74H7.84V18.3358C7.84 18.725 8.155 19.04 8.5442 19.04H18.3372C18.5237 19.0396 18.7025 18.9653 18.8342 18.8333C18.966 18.7012 19.04 18.5223 19.04 18.3358V12.74H17.5714C17.6148 12.9668 17.64 13.2006 17.64 13.44ZM13.44 16.24C13.8078 16.2399 14.172 16.1674 14.5117 16.0265C14.8515 15.8857 15.1602 15.6793 15.4202 15.4192C15.6802 15.1591 15.8864 14.8503 16.0271 14.5104C16.1677 14.1706 16.2401 13.8064 16.24 13.4386C16.2399 13.0708 16.1674 12.7066 16.0265 12.3669C15.8857 12.0271 15.6793 11.7184 15.4192 11.4584C15.1591 11.1984 14.8503 10.9922 14.5104 10.8515C14.1706 10.7109 13.8064 10.6385 13.4386 10.6386C12.6958 10.6388 11.9835 10.934 11.4584 11.4594C10.9333 11.9848 10.6384 12.6972 10.6386 13.44C10.6388 14.1828 10.934 14.8951 11.4594 15.4202C11.9848 15.9453 12.6972 16.2402 13.44 16.24ZM16.8 10.5H18.4786C18.5901 10.5 18.6971 10.4558 18.7761 10.3771C18.8551 10.2983 18.8996 10.1915 18.9 10.08V8.4014C18.9 8.28964 18.8556 8.18245 18.7766 8.10343C18.6975 8.0244 18.5904 7.98 18.4786 7.98H16.8C16.6882 7.98 16.5811 8.0244 16.502 8.10343C16.423 8.18245 16.3786 8.28964 16.3786 8.4014V10.08C16.38 10.311 16.569 10.5 16.8 10.5ZM13.44 0C9.87549 0 6.45697 1.416 3.93648 3.93648C1.416 6.45697 0 9.87549 0 13.44C0 17.0045 1.416 20.423 3.93648 22.9435C6.45697 25.464 9.87549 26.88 13.44 26.88C15.205 26.88 16.9527 26.5324 18.5833 25.8569C20.2139 25.1815 21.6955 24.1915 22.9435 22.9435C24.1915 21.6955 25.1815 20.2139 25.8569 18.5833C26.5324 16.9527 26.88 15.205 26.88 13.44C26.88 11.675 26.5324 9.92735 25.8569 8.29673C25.1815 6.66612 24.1915 5.1845 22.9435 3.93648C21.6955 2.68847 20.2139 1.69848 18.5833 1.02306C16.9527 0.347636 15.205 0 13.44 0ZM20.44 18.8846C20.44 19.74 19.74 20.44 18.8846 20.44H7.9954C7.14 20.44 6.44 19.74 6.44 18.8846V7.9954C6.44 7.14 7.14 6.44 7.9954 6.44H18.8846C19.74 6.44 20.44 7.14 20.44 7.9954V18.8846Z" fill="#1FAA09"/>
</svg>
