<svg width="27" height="27" viewBox="0 0 27 27" fill="none" xmlns="http://www.w3.org/2000/svg">
<path d="M13.44 0C6.0172 0 0 6.0172 0 13.44C0 20.8628 6.0172 26.88 13.44 26.88C20.8628 26.88 26.88 20.8628 26.88 13.44C26.88 6.0172 20.8628 0 13.44 0ZM18.907 11.0096C18.9126 11.1244 18.914 11.2392 18.914 11.3512C18.914 14.8512 16.2526 18.8846 11.3834 18.8846C9.94461 18.887 8.53575 18.4738 7.3262 17.6946C7.532 17.7198 7.7434 17.7296 7.9576 17.7296C9.198 17.7296 10.339 17.3082 11.2448 16.597C10.6928 16.5862 10.1579 16.4034 9.71476 16.0741C9.27157 15.7449 8.94215 15.2856 8.7724 14.7602C9.16882 14.8356 9.57719 14.8198 9.9666 14.714C9.36747 14.5928 8.82868 14.2682 8.44159 13.7951C8.05451 13.3221 7.84295 12.7297 7.8428 12.1184V12.0862C8.1998 12.2836 8.6086 12.404 9.0426 12.418C8.48092 12.0441 8.0833 11.4697 7.93106 10.8124C7.77883 10.155 7.88347 9.46435 8.2236 8.8816C8.88854 9.6992 9.71776 10.368 10.6576 10.8448C11.5974 11.3216 12.6269 11.5957 13.6794 11.6494C13.5456 11.0814 13.6032 10.4852 13.8432 9.95331C14.0832 9.42144 14.4923 8.98379 15.0067 8.70837C15.5211 8.43295 16.1121 8.33521 16.6879 8.43034C17.2636 8.52547 17.7917 8.80814 18.1902 9.2344C18.7826 9.11719 19.3508 8.89988 19.8702 8.5918C19.6727 9.20519 19.2593 9.72605 18.7068 10.0576C19.2316 9.99439 19.744 9.85331 20.2272 9.639C19.8723 10.1709 19.4252 10.635 18.907 11.0096Z" fill="#1FAA09"/>
</svg>
